<svg width="40" height="40" viewBox="0 0 40 40" fill="none" xmlns="http://www.w3.org/2000/svg">
<path fill-rule="evenodd" clip-rule="evenodd" d="M20 40C31.0457 40 40 31.0457 40 20C40 8.9543 31.0457 0 20 0C8.9543 0 0 8.9543 0 20C0 31.0457 8.9543 40 20 40ZM27.996 17.9588H21.8073V11.5042C21.8073 10.5061 20.9981 9.69697 20 9.69697C19.0019 9.69697 18.1927 10.5061 18.1927 11.5042V17.9588H12.004C11.0646 17.9588 10.303 18.7204 10.303 19.6598C10.303 20.5992 11.0646 21.3608 12.004 21.3608H18.1927V28.4958C18.1927 29.4939 19.0019 30.303 20 30.303C20.9981 30.303 21.8073 29.4939 21.8073 28.4958V21.3608H27.996C28.9354 21.3608 29.697 20.5992 29.697 19.6598C29.697 18.7204 28.9354 17.9588 27.996 17.9588Z" fill="#E6E6E6"/>
</svg>
